<svg xmlns="http://www.w3.org/2000/svg" width="125" height="63" viewBox="0 0 125 63"><path fill-rule="evenodd" clip-rule="evenodd" fill="#80715F" d="M154.758 17.926c-.668-.675-1.181-1.032-2.089-1.032-.512 0-1.284.358-1.284 1.072 0 2.166 5.256.754 5.256 5.759 0 3.058-2.055 4.548-4.502 4.548-1.455 0-2.961-.497-4.074-1.609l1.746-2.58c.549.733 1.336 1.091 2.208 1.091.6 0 1.542-.338 1.542-1.212 0-2.124-5.256-.853-5.256-5.739 0-2.7 2.157-4.21 4.28-4.21 1.353 0 2.721.576 3.765 1.57l-1.592 2.342M169.753 18.085c-.635-.516-1.354-.972-2.139-.972-1.986 0-3.39 1.648-3.39 3.992 0 2.363 1.317 4.071 3.39 4.071.786 0 1.591-.496 2.207-1.012l-.36 3.613c-.478.298-1.523.497-2.053.497-3.579 0-6.095-2.86-6.095-7.089 0-4.072 2.516-7.169 6.077-7.169.65 0 1.335.117 1.918.436l.445 3.633M176.301 28.113v-13.78l2.91-.318v5.281h3.767v-4.963l2.908-.318v13.782l-2.908.316v-5.72h-3.767v5.404l-2.91.316M195.644 20.965l2.961-6.95 2.911 7.049 1.779-7.049 2.824.397-4.193 13.86h-.069l-3.217-8.201-3.458 8.201h-.052l-4.04-13.86 2.876-.397 1.678 6.95M211.581 27.955v-13.623h6.641l.514 2.88h-4.246v2.363h3.031v2.879h-3.031v2.621h4.605l-.719 2.88h-6.795M228.02 14.015v13.782l-2.911.316v-13.781l2.911-.317M234.439 17.43l.565-3.097h9.088l-5.631 10.524h5.803l-.651 3.098h-9.944l5.666-10.525h-4.896M250.203 27.955v-13.623h6.643l.513 2.88h-4.245v2.363h3.031v2.879h-3.031v2.621h4.604l-.719 2.88h-6.796"/><path fill-rule="evenodd" clip-rule="evenodd" fill="#80715F" d="M266.345 21.024c1.25.099 2.225-.378 2.225-1.986 0-1.627-1.027-1.885-2.225-1.828v3.814zm-2.91-6.692h3.304c2.74 0 4.741 1.112 4.741 4.209 0 1.412-.701 2.94-1.901 3.456l3.166 5.184-2.943 1.092-3.424-6.434h-.034v5.958l-2.91.317v-13.782zM281.101 14.015v13.782l-2.911.316v-13.781l2.911-.317M294.124 17.926c-.667-.675-1.181-1.032-2.088-1.032-.513 0-1.285.358-1.285 1.072 0 2.166 5.257.754 5.257 5.759 0 3.058-2.055 4.548-4.504 4.548-1.455 0-2.961-.497-4.072-1.609l1.745-2.58c.547.733 1.335 1.091 2.208 1.091.598 0 1.539-.338 1.539-1.212 0-2.124-5.253-.853-5.253-5.739 0-2.7 2.156-4.21 4.279-4.21 1.353 0 2.723.576 3.767 1.57l-1.593 2.342M309.974 18.085c-.632-.516-1.353-.972-2.139-.972-1.985 0-3.389 1.648-3.389 3.992 0 2.363 1.317 4.071 3.389 4.071.787 0 1.593-.496 2.208-1.012l-.359 3.613c-.479.298-1.524.497-2.054.497-3.579 0-6.095-2.86-6.095-7.089 0-4.072 2.516-7.169 6.077-7.169.651 0 1.335.117 1.917.436l.445 3.633M316.51 28.113v-13.78l2.91-.318v5.281h3.766v-4.963l2.91-.318v13.782l-2.91.316v-5.72h-3.766v5.404l-2.91.316M332.874 27.955v-13.623h6.641l.514 2.88h-4.244v2.363h3.03v2.879h-3.03v2.621h4.604l-.718 2.88h-6.797"/><path fill-rule="evenodd" clip-rule="evenodd" fill="#80715F" d="M359.213 25.273h.768c.891 0 1.678-.278 1.678-1.39 0-1.27-.821-1.45-1.712-1.45h-.734v2.84zm0-5.52h.734c.925 0 1.37-.555 1.37-1.409 0-1.032-.788-1.33-1.473-1.33h-.632v2.739zm.41-5.421c2.328 0 4.603.794 4.603 3.574 0 1.31-.616 2.402-1.539 2.86v.04c1.061.496 1.882 1.727 1.882 3.355 0 2.166-1.266 3.794-4.261 3.794h-4.005v-13.623h3.32zM373.384 14.015v13.782l-2.908.316v-13.781l2.908-.317"/><path fill-rule="evenodd" clip-rule="evenodd" fill="#80715F" d="M382.802 25.273h.769c.891 0 1.677-.278 1.677-1.39 0-1.27-.82-1.45-1.71-1.45h-.736v2.84zm0-5.52h.736c.925 0 1.369-.555 1.369-1.409 0-1.032-.787-1.33-1.473-1.33h-.632v2.739zm.411-5.421c2.327 0 4.603.794 4.603 3.574 0 1.31-.616 2.402-1.54 2.86v.04c1.061.496 1.883 1.727 1.883 3.355 0 2.166-1.266 3.794-4.261 3.794h-4.007v-13.623h3.322zM394.236 27.955v-13.623l2.911-.318v10.843h3.851l-.769 3.098h-5.993M409.532 14.015v13.782l-2.91.316v-13.781l2.91-.317M418.227 21.143c0 2.086 1.506 4.032 3.354 4.032 1.849 0 3.355-1.946 3.355-4.032 0-2.085-1.506-4.031-3.355-4.031-1.848 0-3.354 1.946-3.354 4.031m9.62 0c0 3.972-2.842 7.13-6.266 7.13-3.423 0-6.265-3.158-6.265-7.13 0-3.971 2.842-7.128 6.265-7.128 3.424 0 6.266 3.157 6.266 7.128M431.746 17.43l.737-3.097h8.009v3.097h-2.824v10.367l-2.91.316v-10.683h-3.012M446.158 28.113v-13.78l2.911-.318v5.281h3.767v-4.963l2.909-.318v13.782l-2.909.316v-5.72h-3.767v5.404l-2.911.316M462.335 27.955v-13.623h6.64l.515 2.88h-4.245v2.363h3.031v2.879h-3.031v2.621h4.605l-.719 2.88h-6.796M478.277 14.015v6.157h.085l3.92-6.157 2.859.893-3.851 5.917 3.989 6.553-3.066.895-3.851-6.772h-.085v6.296l-2.91.316v-13.781l2.91-.317M500.632 20.349h2.892v2.88h-2.892v4.726l-2.911.158v-13.78h6.197l.701 3.097h-3.987v2.919"/><path fill-rule="evenodd" clip-rule="evenodd" fill="#80715F" d="M518.116 11.89l-1.42 1.688-1.456-1.688 1.42-1.668 1.456 1.668zm-3.372 0l-1.42 1.688-1.455-1.688 1.42-1.668 1.455 1.668zm5.101 11.339c0 3.178-2.141 5.043-5.083 5.043-2.74 0-4.657-1.487-4.657-4.805v-9.134l2.911-.318v8.499c0 1.45.359 2.661 1.814 2.661 1.883 0 2.106-1.529 2.106-3.396v-7.446l2.91-.318v9.214zM528.985 21.024c1.25.099 2.226-.378 2.226-1.986 0-1.627-1.027-1.885-2.226-1.828v3.814zm-2.909-6.692h3.303c2.741 0 4.742 1.112 4.742 4.209 0 1.412-.703 2.94-1.901 3.456l3.166 5.184-2.943 1.092-3.424-6.434h-.034v5.958l-2.91.317v-13.782zM151.352 47.884h.769c.891 0 1.678-.278 1.678-1.39 0-1.272-.821-1.45-1.712-1.45h-.736v2.84zm0-5.521h.736c.925 0 1.369-.555 1.369-1.409 0-1.032-.787-1.33-1.471-1.33h-.634v2.739zm.41-5.42c2.328 0 4.606.794 4.606 3.574 0 1.309-.617 2.401-1.54 2.86v.04c1.06.496 1.883 1.727 1.883 3.355 0 2.164-1.267 3.793-4.262 3.793h-4.007v-13.622h3.32zM162.595 50.565v-13.623l2.911-.317v10.842h3.851l-.77 3.098h-5.992M177.881 36.625v13.781l-2.91.317v-13.78l2.91-.318M195.016 50.883l-7.687-7.785v7.308l-2.908.318v-14.099h.032l7.686 7.626v-7.309l2.911-.317v14.258h-.034"/><path fill-rule="evenodd" clip-rule="evenodd" fill="#80715F" d="M204.477 47.686h.907c1.883 0 3.373-1.848 3.373-3.932s-1.49-3.931-3.373-3.931h-.907v7.863zm-2.911-10.743h4.076c3.337 0 6.025 2.958 6.025 6.811 0 3.852-2.687 6.811-6.025 6.811h-4.076v-13.622zM217.554 50.565v-13.623h6.642l.513 2.88h-4.245v2.364h3.031v2.879h-3.031v2.62h4.604l-.718 2.88h-6.796M231.793 53.941h-2.139l1.728-6.969 3.184-.536-2.773 7.505M253.783 40.537c-.667-.676-1.181-1.033-2.088-1.033-.514 0-1.285.358-1.285 1.073 0 2.164 5.257.754 5.257 5.757 0 3.058-2.056 4.548-4.504 4.548-1.455 0-2.959-.496-4.073-1.608l1.746-2.581c.548.733 1.335 1.091 2.208 1.091.599 0 1.54-.338 1.54-1.212 0-2.123-5.256-.853-5.256-5.738 0-2.702 2.157-4.211 4.28-4.211 1.353 0 2.721.577 3.765 1.57l-1.59 2.344M261.81 50.565v-13.623h6.643l.514 2.88h-4.246v2.364h3.029v2.879h-3.029v2.62h4.605l-.719 2.88h-6.797M275.128 50.724v-13.781l2.911-.318v5.283h3.765v-4.965l2.91-.318v13.783l-2.91.316v-5.72h-3.765v5.404l-2.911.316"/><path fill-rule="evenodd" clip-rule="evenodd" fill="#80715F" d="M289.204 44.092h4.953v2.702h-4.953zM315.029 45.839c0 3.178-2.139 5.044-5.083 5.044-2.74 0-4.657-1.49-4.657-4.805v-9.135l2.911-.318v8.499c0 1.45.359 2.662 1.815 2.662 1.883 0 2.105-1.53 2.105-3.396v-7.447l2.91-.318v9.214M332.079 50.883l-7.686-7.785v7.308l-2.91.318v-14.099h.033l7.686 7.626v-7.309l2.91-.317v14.258h-.033"/><path fill-rule="evenodd" clip-rule="evenodd" fill="#80715F" d="M341.561 47.686h.907c1.883 0 3.372-1.848 3.372-3.932s-1.489-3.931-3.372-3.931h-.907v7.863zm-2.91-10.743h4.074c3.337 0 6.025 2.958 6.025 6.811 0 3.852-2.687 6.811-6.025 6.811h-4.074v-13.622zM364.81 50.565v-13.623l2.91-.317v10.842h3.851l-.77 3.098h-5.991M378.024 50.565v-13.623h6.642l.513 2.88h-4.244v2.364h3.031v2.879h-3.031v2.62h4.604l-.719 2.88h-6.796M398.156 40.537c-.667-.676-1.181-1.033-2.088-1.033-.513 0-1.285.358-1.285 1.073 0 2.164 5.257.754 5.257 5.757 0 3.058-2.056 4.548-4.504 4.548-1.455 0-2.961-.496-4.072-1.608l1.745-2.581c.547.733 1.335 1.091 2.208 1.091.598 0 1.539-.338 1.539-1.212 0-2.123-5.254-.853-5.254-5.738 0-2.702 2.156-4.211 4.279-4.211 1.353 0 2.722.577 3.765 1.57l-1.59 2.344M407.039 50.565v-13.623h6.641l.514 2.88h-4.244v2.364h3.03v2.879h-3.03v2.62h4.605l-.72 2.88h-6.796"/><path fill-rule="evenodd" clip-rule="evenodd" fill="#80715F" d="M424.055 47.884h.769c.891 0 1.677-.278 1.677-1.39 0-1.272-.82-1.45-1.71-1.45h-.736v2.84zm0-5.521h.736c.925 0 1.369-.555 1.369-1.409 0-1.032-.787-1.33-1.471-1.33h-.634v2.739zm.411-5.42c2.328 0 4.603.794 4.603 3.574 0 1.309-.616 2.401-1.539 2.86v.04c1.061.496 1.882 1.727 1.882 3.355 0 2.164-1.266 3.793-4.261 3.793h-4.006v-13.622h3.321zM436.344 50.565v-13.623h6.641l.514 2.88h-4.244v2.364h3.03v2.879h-3.03v2.62h4.605l-.719 2.88h-6.797M450.518 50.724v-13.781l2.911-.318v5.283h3.765v-4.965l2.91-.318v13.783l-2.91.316v-5.72h-3.765v5.404l-2.911.316M470.477 36.625v13.781l-2.91.317v-13.78l2.91-.318M488.447 50.883l-7.686-7.785v7.308l-2.909.318v-14.099h.032l7.687 7.626v-7.309l2.911-.317v14.258h-.035"/><path fill-rule="evenodd" clip-rule="evenodd" fill="#80715F" d="M498.599 47.686h.907c1.883 0 3.372-1.848 3.372-3.932s-1.489-3.931-3.372-3.931h-.907v7.863zm-2.911-10.743h4.073c3.339 0 6.025 2.958 6.025 6.811 0 3.852-2.686 6.811-6.025 6.811h-4.073v-13.622zM511.969 50.565v-13.623h6.64l.515 2.88h-4.244v2.364h3.029v2.879h-3.029v2.62h4.604l-.719 2.88h-6.796"/><path fill-rule="evenodd" clip-rule="evenodd" fill="#80715F" d="M528.779 43.634c1.25.1 2.226-.378 2.226-1.986 0-1.627-1.027-1.885-2.226-1.826v3.812zm-2.911-6.691h3.304c2.74 0 4.742 1.112 4.742 4.209 0 1.411-.702 2.94-1.901 3.456l3.166 5.183-2.944 1.093-3.423-6.436h-.034v5.958l-2.911.317v-13.78zM539.508 40.04l.737-3.097h8.009v3.097h-2.824v10.368l-2.911.315v-10.683h-3.011M554.485 50.565v-13.623h6.64l.515 2.88h-4.244v2.364h3.029v2.879h-3.029v2.62h4.604l-.719 2.88h-6.796"/><path fill-rule="evenodd" clip-rule="evenodd" fill="#03559E" d="M60.384 41.701c-5.715 0-10.343-4.566-10.343-10.201s4.628-10.2 10.343-10.2c5.713 0 10.343 4.564 10.343 10.2s-4.63 10.201-10.343 10.201"/><path fill-rule="evenodd" clip-rule="evenodd" fill="#C1B5A8" d="M60.383 1c-3.632 0-7.104.651-10.343 1.785v13.429c2.96-1.952 6.517-3.093 10.343-3.093 10.294 0 18.637 8.227 18.637 18.38 0 10.151-8.342 18.377-18.637 18.377-10.288 0-18.624-8.216-18.632-18.359h-.021v-24.305c-7.445 5.57-12.274 14.361-12.274 24.287-.001 16.843 13.846 30.499 30.927 30.499 17.083 0 30.929-13.656 30.929-30.499-.001-16.845-13.846-30.501-30.929-30.501M20.962 22.084c-1.372-.856-3.138-1.313-5.053-1.313-2.009 0-3.038 1.01-3.038 2.17 0 1.968 2.891 3.584 6.229 6.763 4.411 4.239 5.49 6.915 5.49 10.598 0 3.13-2.5 10.396-12.8 10.396-4.023 0-8.042-.957-10.791-3.229l3.141-5.855c1.469 1.161 3.433 2.473 5.887 2.473 2.059 0 4.313-1.058 4.313-3.685 0-2.825-3.333-4.893-6.036-7.316-3.575-3.228-5.686-5.097-5.686-9.436 0-5.652 5.541-9.488 12.016-9.488 4.364 0 7.797 1.616 8.972 2.373l-2.644 5.549M114.948 22.084c-1.372-.856-3.135-1.313-5.05-1.313-2.01 0-3.039 1.01-3.039 2.17 0 1.968 2.891 3.584 6.229 6.763 4.411 4.239 5.49 6.915 5.49 10.598 0 3.13-2.502 10.396-12.8 10.396-4.021 0-8.041-.957-10.791-3.229l3.143-5.855c1.47 1.161 3.43 2.473 5.886 2.473 2.056 0 4.314-1.058 4.314-3.685 0-2.825-3.336-4.893-6.035-7.316-3.579-3.228-5.687-5.097-5.687-9.436 0-5.652 5.541-9.488 12.016-9.488 4.366 0 7.796 1.616 8.974 2.373l-2.65 5.549"/></svg>
